<svg xmlns="http://www.w3.org/2000/svg" width="48" height="48" viewBox="0 0 46 48"><style>@media (prefers-color-scheme:dark){path{fill:#fff}}</style><path d="M44.505 14.207c-.396 0-.776.16-1.057.443-.28.284-.437.669-.437 1.07v9.3a7.97 7.97 0 0 1-2.29 5.6 7.771 7.771 0 0 1-5.53 2.32 7.77 7.77 0 0 1-5.53-2.32 7.97 7.97 0 0 1-2.29-5.6v-2.49c1.641.378 3.348.362 4.983-.046a10.755 10.755 0 0 0 4.433-2.306 1.51 1.51 0 0 0 .519-1.033 1.53 1.53 0 0 0-.355-1.102 1.499 1.499 0 0 0-1.02-.525 1.48 1.48 0 0 0-1.087.359 7.79 7.79 0 0 1-3.543 1.74 7.735 7.735 0 0 1-3.93-.226v-3.67c0-.401-.158-.786-.438-1.07a1.485 1.485 0 0 0-2.114 0c-.28.284-.438.669-.438 1.07v1.874a7.953 7.953 0 0 1-2.296-4.238h16.992c.396 0 .776-.16 1.057-.443.28-.284.437-.669.437-1.07 0-1.96-.521-3.884-1.508-5.57a10.863 10.863 0 0 0-4.099-4.016 10.691 10.691 0 0 0-10.995.365l.215-.476a1.529 1.529 0 0 0-.235-1.692 1.496 1.496 0 0 0-1.057-.492 1.478 1.478 0 0 0-1.086.424c-.144.14-.258.309-.337.495l-7.096 15.645L7.276.88A1.514 1.514 0 0 0 6.44.062a1.478 1.478 0 0 0-1.642.392 1.518 1.518 0 0 0-.388 1.111c.012.202.064.4.153.581l7.174 15.839a11.725 11.725 0 0 0-.936-.043 10.666 10.666 0 0 0-4.25.89 10.783 10.783 0 0 0-3.56 2.513v-2.052c0-.402-.158-.787-.438-1.07a1.485 1.485 0 0 0-2.114 0c-.28.283-.438.668-.438 1.07v19.192c0 .402.157.787.438 1.07a1.485 1.485 0 0 0 2.114 0 1.52 1.52 0 0 0 .437-1.07V28.89a8.006 8.006 0 0 1 .924-3.73 7.891 7.891 0 0 1 2.55-2.85 7.736 7.736 0 0 1 7.33-.743 1.478 1.478 0 0 0 1.683-.393l.02-.028c.042-.05.081-.1.117-.154l.015-.027.033-.06c.021-.037.042-.073.06-.113l3.345-7.36c.238 1.64.84 3.204 1.76 4.574a10.879 10.879 0 0 0 3.555 3.337v8.174a10.755 10.755 0 0 0-6.538-3.31c-2.493-.3-5.012.289-7.123 1.665a10.924 10.924 0 0 0-4.446 5.875 11.07 11.07 0 0 0 .266 7.397 10.896 10.896 0 0 0 4.856 5.533 10.685 10.685 0 0 0 7.223 1.136 10.78 10.78 0 0 0 6.284-3.782 11.026 11.026 0 0 0 2.467-6.967v-4.499a10.78 10.78 0 0 0 3.565 2.516 10.664 10.664 0 0 0 8.511 0 10.78 10.78 0 0 0 3.565-2.516v1.89c0 .4.157.785.437 1.07a1.485 1.485 0 0 0 2.114 0c.28-.285.438-.67.438-1.07V15.72c0-.402-.157-.787-.438-1.07a1.485 1.485 0 0 0-1.057-.444ZM29.762 3.935a7.773 7.773 0 0 1 4.971 1.81 7.95 7.95 0 0 1 2.706 4.596H22.084a7.957 7.957 0 0 1 2.707-4.594 7.778 7.778 0 0 1 4.97-1.812ZM16.56 44.973a7.75 7.75 0 0 1-4.345-1.335 7.899 7.899 0 0 1-2.88-3.554 8.013 8.013 0 0 1-.445-4.576 7.95 7.95 0 0 1 2.14-4.054 7.79 7.79 0 0 1 4.004-2.168 7.729 7.729 0 0 1 4.519.451 7.842 7.842 0 0 1 3.51 2.917 7.99 7.99 0 0 1-.976 9.997 7.78 7.78 0 0 1-5.527 2.322Z"/></svg>